# xmcd
#
# Track frame offsets: 
#        150
#        15211
#        35544
#        57871
#        66424
#        89375
#        107508
#        145216
#        163965
#        195860
#        219225
#
# Disc length: 3238 seconds
#
# Revision: 0
# Processed by: cddbd v1.5.2PL0 Copyright (c) Steve Scherf et al.
# Submitted via: ExactAudioCopyFreeDBPlugin 1.0
#
DISCID=8d0ca40b
DTITLE=Weeping Widows - Live à La Grangette
DYEAR=2016
DGENRE=Blues
TTITLE0=Tango Blue
TTITLE1=Weeping Shuffle
TTITLE2=Mississippi
TTITLE3=Hommage A Pierre
TTITLE4=Saint James Infirmary
TTITLE5=Nina
TTITLE6=Blues Des Kärchers
TTITLE7=Talk Is Cheap
TTITLE8=Rock Me Baby
TTITLE9=So Fine
TTITLE10=Double Coup - Featuring – Paamath
EXTD=
EXTT0=
EXTT1=
EXTT2=
EXTT3=
EXTT4=
EXTT5=
EXTT6=
EXTT7=
EXTT8=
EXTT9=
EXTT10=
PLAYORDER=
